<?xml version="1.0" encoding="iso-8859-1"?>
<!-- Generator: Adobe Illustrator 19.0.0, SVG Export Plug-In . SVG Version: 6.00 Build 0)  -->
<svg version="1.1" id="Capa_1" xmlns="http://www.w3.org/2000/svg" xmlns:xlink="http://www.w3.org/1999/xlink" x="0px" y="0px"
	 viewBox="0 0 511.998 511.998" style="enable-background:new 0 0 511.998 511.998;" xml:space="preserve">
<g>
	<path style="fill:#36B6D6;" d="M370.688,190.297l-36.779,36.864c-6.805,6.741-17.771,6.741-24.576,0l-24.576-24.576
		c-6.741-6.805-6.741-17.771,0-24.576l36.864-36.779c3.233-3.276,7.643-5.12,12.245-5.12c4.602,0,9.013,1.844,12.245,5.12
		l24.576,24.576c3.276,3.233,5.12,7.643,5.12,12.245S373.964,187.064,370.688,190.297z"/>
	
		<rect x="111.801" y="274.287" transform="matrix(-0.7071 0.7071 -0.7071 -0.7071 582.3292 342.0873)" style="fill:#5496CE;" width="217.029" height="34.722"/>
	
		<rect x="84.859" y="276.994" transform="matrix(-0.7071 0.7071 -0.7071 -0.7071 579.5999 348.6322)" style="fill:#0086C3;" width="265.473" height="34.722"/>
	<path style="fill:#728B98;" d="M462.762,122.798c0,0-18.432,98.219-61.355,98.219l-30.72-30.72c3.276-3.233,5.12-7.643,5.12-12.245
		s-1.844-9.013-5.12-12.245l-24.576-24.576c-3.233-3.276-7.643-5.12-12.245-5.12c-4.602,0-9.013,1.844-12.245,5.12l-30.72-30.72
		c0-42.923,98.219-61.355,98.219-61.355c-54.245-54.245-142.193-54.245-196.437,0s-54.245,142.193,0,196.437
		c0,0,18.432-98.219,61.355-98.219l30.72,30.635c-6.741,6.805-6.741,17.771,0,24.576l24.576,24.576
		c6.805,6.741,17.771,6.741,24.576,0l30.635,30.72c0,42.923-98.219,61.355-98.219,61.355c54.245,54.245,142.193,54.245,196.437,0
		S517.007,177.043,462.762,122.798L462.762,122.798z"/>
	<path style="fill:#0086C3;" d="M462.762,319.235c-26.043,26.061-61.375,40.704-98.219,40.704s-72.176-14.643-98.219-40.704
		c0.09-0.011,0.177-0.04,0.256-0.085c5.803-1.109,97.963-19.712,97.963-61.269l-30.635-30.72l34.219-34.304l2.56-2.56l9.813,9.813
		l20.907,20.907c34.304,0,52.907-62.549,59.051-87.808c1.536-6.4,2.304-10.411,2.304-10.411
		c26.061,26.043,40.704,61.375,40.704,98.219S488.824,293.193,462.762,319.235L462.762,319.235z"/>
	<path style="fill:#00B3F2;" d="M437.162,298.755c-45.332,45.366-115.832,53.795-170.581,20.395
		c5.803-1.109,97.963-19.712,97.963-61.269l-30.635-30.72l34.219-34.304l7.68,7.68c1.574-0.011,3.144-0.154,4.693-0.427
		l20.907,20.907c34.304,0,52.907-62.549,59.051-87.808C490.515,187.405,481.009,254.959,437.162,298.755z"/>
	<path style="fill:#0086C3;" d="M290.901,110.51l20.907,20.907l9.813,9.813l-2.56,2.56l-34.304,34.219l-30.72-30.635
		c-41.557,0-60.16,92.16-61.269,97.963c-0.046,0.079-0.075,0.166-0.085,0.256c-54.245-54.245-54.245-142.193,0-196.437
		s142.193-54.245,196.437,0c0,0-4.011,0.768-10.411,2.304C353.45,57.603,290.901,76.206,290.901,110.51z"/>
	<path style="fill:#00B3F2;" d="M311.381,136.11l7.68,7.68l-34.304,34.219l-30.72-30.635c-41.557,0-60.16,92.16-61.269,97.963
		c-32.816-53.827-25.281-123.001,18.355-168.5S323.559,20.92,378.709,51.459c-25.259,6.144-87.808,24.747-87.808,59.051
		l20.907,20.907C311.535,132.967,311.392,134.536,311.381,136.11L311.381,136.11z"/>
	<polygon style="fill:#EB3A76;" points="88.32,472.665 57.6,503.385 8.533,454.318 20.821,442.03 	"/>
	<polygon style="fill:#B82B6A;" points="118.954,442.03 88.32,472.665 20.821,442.03 51.541,411.31 	"/>
	<polygon style="fill:#EB3A76;" points="149.674,411.31 119.04,442.03 118.954,442.03 51.541,411.31 82.261,380.59 	"/>
	<path style="fill:#B82B6A;" d="M155.818,405.166l-6.059,6.144h-0.085l-67.413-30.72l24.491-24.491
		c3.249-3.277,7.673-5.12,12.288-5.12c4.615,0,9.039,1.843,12.288,5.12l24.491,24.491c3.277,3.249,5.12,7.673,5.12,12.288
		C160.938,397.493,159.095,401.917,155.818,405.166L155.818,405.166z"/>
	<path d="M468.816,116.764c-2.237-2.241-5.531-3.058-8.556-2.121c-3.025,0.936-5.281,3.472-5.861,6.584
		c-4.282,22.819-22.37,86.266-49.907,90.814l-22.809-22.809c4.873-9.873,2.88-21.757-4.947-29.501l-24.55-24.55
		c-7.883-7.492-19.539-9.417-29.413-4.859l-23.058-23.058c4.742-27.417,68.196-45.454,90.979-49.742
		c3.11-0.586,5.64-2.844,6.575-5.867c0.935-3.023,0.12-6.316-2.117-8.554c-57.602-57.424-150.826-57.352-208.339,0.161
		S129.23,194,186.654,251.601c2.238,2.24,5.532,3.056,8.557,2.12c3.025-0.936,5.282-3.47,5.864-6.583
		c4.271-22.783,22.279-86.242,49.746-90.975l22.982,22.983c-3.385,7.065-3.385,15.283,0,22.348l-143.599,143.6
		c-9.879-4.788-21.704-2.81-29.487,4.933L2.5,448.243c-1.601,1.6-2.5,3.77-2.5,6.033s0.899,4.433,2.5,6.033l49.108,49.108
		c1.6,1.601,3.77,2.5,6.033,2.5c2.263,0,4.433-0.899,6.033-2.5l98.217-98.216c7.735-7.785,9.712-19.606,4.93-29.484l143.6-143.601
		c7.034,3.524,15.318,3.524,22.351,0l22.819,22.819c-4.554,27.495-67.995,45.614-90.818,49.907c-3.11,0.586-5.64,2.844-6.575,5.867
		c-0.935,3.023-0.12,6.316,2.117,8.554c57.576,57.576,150.924,57.576,208.5,0S526.392,174.34,468.816,116.764z M254.075,138.818
		c-38.287,0-58.275,58.475-66.038,88.633c-40.398-51.905-35.811-125.772,10.699-172.28S319.113,4.08,371.017,44.481
		c-30.154,7.758-88.646,27.75-88.646,66.038c0.001,2.263,0.9,4.433,2.5,6.033l24.662,24.662l-12.383,12.382l-12.383,12.382
		l-24.658-24.658C258.508,139.718,256.338,138.819,254.075,138.818L254.075,138.818z M112.783,362.093
		c3.495-3.333,8.992-3.333,12.488,0l24.554,24.554c3.444,3.45,3.444,9.038,0,12.488l-1.958,1.958l-50.933-23.151L112.783,362.093z
		 M117.173,431.787l-50.93-23.154l17.806-17.806l50.933,23.15L117.173,431.787z M86.479,462.48l-50.933-23.15l17.809-17.809
		l50.93,23.153L86.479,462.48z M57.641,491.318L20.6,454.276l2.062-2.062l50.933,23.151L57.641,491.318z M155.858,368.547
		l-12.488-12.488l141.396-141.396l12.488,12.488L155.858,368.547z M315.354,221.118L290.8,196.564c-3.445-3.45-3.445-9.038,0-12.488
		l36.837-36.829c1.655-1.657,3.9-2.588,6.242-2.588c2.342,0,4.587,0.931,6.242,2.588l24.55,24.55
		c1.657,1.656,2.588,3.902,2.588,6.244s-0.931,4.588-2.588,6.244l-36.829,36.833C324.346,224.45,318.85,224.45,315.354,221.118
		L315.354,221.118z M284.466,323.881c30.158-7.762,88.633-27.75,88.633-66.038c-0.013-2.262-0.912-4.428-2.503-6.036l-24.656-24.656
		l24.765-24.765l24.658,24.658c1.608,1.591,3.774,2.489,6.036,2.503c38.283,0,58.275-58.475,66.033-88.633
		c40.408,51.901,35.827,125.773-10.683,172.283S336.367,364.289,284.466,323.881L284.466,323.881z"/>
</g>
<g>
</g>
<g>
</g>
<g>
</g>
<g>
</g>
<g>
</g>
<g>
</g>
<g>
</g>
<g>
</g>
<g>
</g>
<g>
</g>
<g>
</g>
<g>
</g>
<g>
</g>
<g>
</g>
<g>
</g>
</svg>
