<?xml version="1.0" encoding="iso-8859-1"?>
<!-- Generator: Adobe Illustrator 19.0.0, SVG Export Plug-In . SVG Version: 6.00 Build 0)  -->
<svg version="1.1" id="Capa_1" xmlns="http://www.w3.org/2000/svg" xmlns:xlink="http://www.w3.org/1999/xlink" x="0px" y="0px"
	 viewBox="0 0 512.034 512.034" style="enable-background:new 0 0 512.034 512.034;" xml:space="preserve">
<g transform="translate(-1)">
	<g>
		<g>
			<circle style="fill:#B4B4B3;" cx="227.155" cy="315.735" r="187.733"/>
			<circle style="fill:#B4B4B3;" cx="295.421" cy="221.868" r="34.133"/>
			<circle style="fill:#B4B4B3;" cx="350.888" cy="285.868" r="21.333"/>
		</g>
		<path style="fill:#3A3E48;" d="M261.288,131.159v-28.757c-0.014-4.707-3.826-8.52-8.533-8.533h-51.2
			c-4.707,0.014-8.52,3.826-8.533,8.533v28.757"/>
	</g>
	<path style="fill:#FFBA00;" d="M474.621,8.535c0,0-69.052,15.279-89.02,32.798c-9.209,8.007-13.431,20.33-11.065,32.302
		s10.956,21.764,22.519,25.666c11.563,3.903,24.33,1.32,33.467-6.769C450.491,75.013,474.621,8.535,474.621,8.535z"/>
	<path id="SVGCleanerId_0" style="fill:#928170;" d="M227.155,102.401c-2.263,0.001-4.434-0.898-6.035-2.499
		c-1.6-1.6-2.499-3.771-2.499-6.035V64.685c-0.249-15.601,6.716-30.443,18.875-40.221c12.475-9.392,38.442-19.054,72.942,21.183
		c27.558,32.183,51.617,34.7,66.933,31.121c4.591-1.068,9.178,1.788,10.246,6.379c1.068,4.591-1.788,9.178-6.379,10.246
		c-19.925,4.625-50.633,2.042-83.767-36.642c-19.375-22.604-36.092-28.892-49.65-18.696c-7.924,6.539-12.399,16.359-12.133,26.629
		v29.183c0.001,2.263-0.898,4.434-2.499,6.035C231.589,101.503,229.418,102.402,227.155,102.401L227.155,102.401z"/>
	<g>
		<path style="fill:#354A9F;" d="M261.288,132.268v-29.613c0.055-4.777-3.757-8.702-8.533-8.787h-51.2
			c-4.776,0.085-8.588,4.01-8.533,8.787v29.613"/>
		<path style="fill:#583EAB;" d="M414.888,315.735c-0.001,103.681-84.051,187.73-187.732,187.73
			c-103.681,0-187.731-84.05-187.731-187.731c0-103.681,84.049-187.731,187.73-187.732c49.808-0.06,97.594,19.699,132.814,54.919
			S414.948,265.926,414.888,315.735L414.888,315.735z"/>
		<path style="fill:#7B54BF;" d="M380.755,341.335c0.055,51.644-21.22,101.018-58.795,136.448
			c-82.37,48.19-187.786,26.918-245.023-49.442S28.854,244.83,98.216,179.287c58.061-33.959,129.852-34.264,188.199-0.8
			S380.749,274.072,380.755,341.335L380.755,341.335z"/>
		<circle style="fill:#FFFFFF;" cx="295.421" cy="221.868" r="34.133"/>
		<circle style="fill:#AA44B9;" cx="350.888" cy="285.868" r="21.333"/>
	</g>
	<path style="fill:#F9D842;" d="M474.621,8.535c0,0-24.149,66.475-44.117,83.968c-6.778,5.965-15.648,8.992-24.658,8.416
		c-9.01-0.576-17.422-4.709-23.385-11.488c-1.155-1.323-2.183-2.752-3.072-4.267c-9.059-14.148-6.411-32.795,6.229-43.861
		c10.24-8.96,33.365-17.323,53.419-23.381C458.237,12.204,474.621,8.535,474.621,8.535z"/>
	<path style="fill:#FFE749;" d="M439.037,17.921c-8.875,20.736-22.272,48.555-34.133,58.965c-6.992,6.173-16.231,9.17-25.515,8.277
		c-9.059-14.148-6.411-32.795,6.229-43.861C395.859,32.343,418.984,23.98,439.037,17.921z"/>
	<g>
		<path id="SVGCleanerId_0_1_" style="fill:#928170;" d="M227.155,102.401c-2.263,0.001-4.434-0.898-6.035-2.499
			c-1.6-1.6-2.499-3.771-2.499-6.035V64.685c-0.249-15.601,6.716-30.443,18.875-40.221c12.475-9.392,38.442-19.054,72.942,21.183
			c27.558,32.183,51.617,34.7,66.933,31.121c4.591-1.068,9.178,1.788,10.246,6.379c1.068,4.591-1.788,9.178-6.379,10.246
			c-19.925,4.625-50.633,2.042-83.767-36.642c-19.375-22.604-36.092-28.892-49.65-18.696c-7.924,6.539-12.399,16.359-12.133,26.629
			v29.183c0.001,2.263-0.898,4.434-2.499,6.035C231.589,101.503,229.418,102.402,227.155,102.401L227.155,102.401z"/>
	</g>
	<g>
		<path d="M295.421,264.535c23.564,0,42.667-19.103,42.667-42.667s-19.103-42.667-42.667-42.667s-42.667,19.103-42.667,42.667
			C252.782,245.421,271.869,264.507,295.421,264.535L295.421,264.535z M295.421,196.268c14.138,0,25.6,11.462,25.6,25.6
			c0,14.139-11.462,25.6-25.6,25.6c-14.138,0-25.6-11.462-25.6-25.6C269.837,207.736,281.289,196.284,295.421,196.268
			L295.421,196.268z"/>
		<path d="M321.021,285.868c0,16.495,13.372,29.867,29.867,29.867c16.495,0,29.867-13.372,29.867-29.867
			s-13.372-29.867-29.867-29.867C334.401,256.021,321.041,269.382,321.021,285.868z M350.888,273.068c7.069,0,12.8,5.731,12.8,12.8
			c0,7.069-5.731,12.8-12.8,12.8c-7.069,0-12.8-5.731-12.8-12.8C338.096,278.802,343.822,273.076,350.888,273.068z"/>
		<path d="M310.438,45.647c-34.5-40.237-60.467-30.575-72.942-21.183c-12.159,9.778-19.124,24.62-18.875,40.221v20.65h-17.067
			c-9.421,0.011-17.056,7.645-17.067,17.067v21.793C86.793,145.953,21.12,237.74,32.065,337.229s95.001,174.805,195.09,174.805
			s184.145-75.316,195.09-174.805c10.945-99.489-54.728-191.276-152.423-213.035v-21.793c-0.011-9.421-7.645-17.056-17.067-17.067
			h-17.067v-20.65c-0.265-10.27,4.21-20.091,12.133-26.629c13.558-10.196,30.275-3.908,49.65,18.696
			c30.169,35.222,58.299,40.487,78.137,37.661c0.164,0.193,0.27,0.419,0.438,0.61c7.434,8.512,17.962,13.699,29.242,14.404
			c0.95,0.063,1.9,0.092,2.842,0.092c10.316,0.016,20.282-3.744,28.017-10.571c21.008-18.429,43.95-80.487,46.5-87.5
			c1.062-2.927,0.446-6.2-1.608-8.541c-2.053-2.341-5.219-3.377-8.259-2.705c-7.292,1.613-71.8,16.287-92.8,34.717
			c-12.305,10.624-17.33,27.42-12.882,43.056C352.222,78.113,332.454,71.359,310.438,45.647z M406.355,315.735
			c0,98.969-80.231,179.2-179.2,179.2s-179.2-80.231-179.2-179.2s80.231-179.2,179.2-179.2
			C326.077,136.647,406.242,216.812,406.355,315.735L406.355,315.735z M252.755,121.192c-16.989-2.299-34.211-2.299-51.2,0v-18.79
			h51.2V121.192z M391.23,47.747c11.825-10.371,46.317-20.996,69.542-27.058c-9.033,22.242-24.058,55.058-35.883,65.429
			c-10.597,9.287-26.715,8.229-36.007-2.363C379.59,73.162,380.641,57.043,391.23,47.747z"/>
	</g>
</g>
<g>
</g>
<g>
</g>
<g>
</g>
<g>
</g>
<g>
</g>
<g>
</g>
<g>
</g>
<g>
</g>
<g>
</g>
<g>
</g>
<g>
</g>
<g>
</g>
<g>
</g>
<g>
</g>
<g>
</g>
</svg>
