<?xml version="1.0" encoding="iso-8859-1"?>
<!-- Generator: Adobe Illustrator 19.0.0, SVG Export Plug-In . SVG Version: 6.00 Build 0)  -->
<svg version="1.1" id="Capa_1" xmlns="http://www.w3.org/2000/svg" xmlns:xlink="http://www.w3.org/1999/xlink" x="0px" y="0px"
	 viewBox="0 0 512 512" style="enable-background:new 0 0 512 512;" xml:space="preserve">
<g>
	<polygon style="fill:#008F9B;" points="503.467,134.656 256,469.333 234.667,440.491 8.533,134.656 93.867,42.667 418.133,42.667 	
		"/>
	<g>
		<polygon style="fill:#00C2D7;" points="460.8,134.656 234.667,440.491 8.533,134.656 93.867,42.667 375.467,42.667 		"/>
		<polygon style="fill:#00C2D7;" points="179.2,134.656 8.533,134.656 93.867,42.667 		"/>
	</g>
	<g>
		<polygon style="fill:#00B3F2;" points="256,42.667 179.2,134.656 93.867,42.667 		"/>
		<polygon style="fill:#00B3F2;" points="332.8,134.656 256,469.333 179.2,134.656 		"/>
		<polygon style="fill:#00B3F2;" points="418.133,42.667 332.8,134.656 256,42.667 		"/>
	</g>
	<polygon style="fill:#008F9B;" points="503.467,134.656 332.8,134.656 396.8,65.707 418.133,42.667 	"/>
	<g>
		<polygon style="fill:#00C2D7;" points="460.8,134.656 332.8,134.656 396.8,65.707 		"/>
		<polygon style="fill:#00C2D7;" points="332.8,134.656 179.2,134.656 256,42.667 		"/>
	</g>
	<path d="M511.333,131.383c-0.031-0.074-0.095-0.127-0.129-0.199c-0.366-0.84-0.865-1.615-1.479-2.295l-85.333-92.025
		c-0.076-0.082-0.189-0.111-0.268-0.19c-0.079-0.079-0.107-0.187-0.19-0.264c-0.413-0.31-0.855-0.579-1.319-0.805
		c-0.965-0.8-2.177-1.241-3.43-1.25c-0.345-0.096-0.696-0.169-1.051-0.22H93.867c-0.35,0.05-0.696,0.122-1.037,0.217
		c-0.723,0.054-1.435,0.203-2.119,0.443c-0.463,0.227-0.904,0.497-1.318,0.805c-0.467,0.227-0.911,0.499-1.326,0.811
		c-0.083,0.077-0.111,0.184-0.19,0.264c-0.079,0.08-0.192,0.108-0.268,0.19L2.275,128.887c-0.614,0.68-1.114,1.456-1.479,2.296
		c-0.033,0.073-0.097,0.124-0.128,0.199c-0.401,0.984-0.613,2.035-0.625,3.098C0.041,134.555,0,134.617,0,134.692
		c0.04,0.264,0.092,0.525,0.158,0.783c0.05,0.713,0.192,1.417,0.422,2.094c0.165,0.413,0.363,0.811,0.593,1.192
		c0.144,0.346,0.311,0.682,0.501,1.006l247.467,334.642c0.115,0.155,0.306,0.217,0.43,0.363c0.609,0.721,1.336,1.334,2.149,1.813
		c0.269,0.171,0.548,0.326,0.835,0.464c2.166,1.092,4.722,1.092,6.889,0c0.287-0.138,0.566-0.293,0.835-0.464
		c0.813-0.479,1.54-1.092,2.149-1.813c0.124-0.146,0.315-0.207,0.43-0.363l247.467-334.642c0.365-0.732,0.73-1.465,1.095-2.197
		c0.23-0.677,0.372-1.382,0.422-2.095c0.066-0.258,0.118-0.519,0.158-0.782c0-0.075-0.041-0.137-0.043-0.211
		C511.945,133.418,511.733,132.367,511.333,131.383z M93.865,55.218l65.782,70.94H28.081L93.865,55.218z M197.434,126.158
		L256,55.982l58.566,70.177H197.434z M322.087,143.225L256,431.183l-66.087-287.958H322.087z M274.233,51.2H398.58l-65.447,70.579
		L274.233,51.2z M178.867,121.779L113.42,51.2h124.347L178.867,121.779z M172.404,143.225l66.127,288.134L25.457,143.225H172.404z
		 M339.596,143.225h146.946L273.47,431.359L339.596,143.225z M352.353,126.158l65.782-70.94l65.783,70.94H352.353z"/>
</g>
<g>
</g>
<g>
</g>
<g>
</g>
<g>
</g>
<g>
</g>
<g>
</g>
<g>
</g>
<g>
</g>
<g>
</g>
<g>
</g>
<g>
</g>
<g>
</g>
<g>
</g>
<g>
</g>
<g>
</g>
</svg>
