<?xml version="1.0" encoding="iso-8859-1"?>
<!-- Generator: Adobe Illustrator 19.0.0, SVG Export Plug-In . SVG Version: 6.00 Build 0)  -->
<svg version="1.1" id="Capa_1" xmlns="http://www.w3.org/2000/svg" xmlns:xlink="http://www.w3.org/1999/xlink" x="0px" y="0px"
	 viewBox="0 0 512 512" style="enable-background:new 0 0 512 512;" xml:space="preserve">
<g>
	<g>
		<path style="fill:#F6AB27;" d="M128,8.533h256c4.713,0,8.533,3.821,8.533,8.533v17.067c0,4.713-3.82,8.533-8.533,8.533H128
			c-4.713,0-8.533-3.821-8.533-8.533V17.067C119.467,12.354,123.287,8.533,128,8.533z"/>
		<path style="fill:#5496CE;" d="M300.131,308.664l65.339,65.339c6.401,6.401,9.997,15.083,9.997,24.136v71.195H136.533v-71.195
			c0-9.053,3.596-17.735,9.997-24.136l65.339-65.339c6.401-6.401,9.997-15.083,9.997-24.136v-57.056
			c0-9.053-3.596-17.735-9.997-24.136l-65.339-65.339c-6.401-6.401-9.997-15.083-9.997-24.136V42.667h238.933v71.195
			c0,9.053-3.596,17.735-9.997,24.136l-65.339,65.339c-6.401,6.401-9.997,15.083-9.997,24.136v57.056
			C290.133,293.581,293.73,302.263,300.131,308.664L300.131,308.664z"/>
		<path style="fill:#F6AB27;" d="M128,469.333h256c4.713,0,8.533,3.821,8.533,8.533v17.067c0,4.713-3.82,8.533-8.533,8.533H128
			c-4.713,0-8.533-3.821-8.533-8.533v-17.067C119.467,473.154,123.287,469.333,128,469.333z"/>
	</g>
	<path style="fill:none;stroke:#000000;stroke-width:2;stroke-linecap:round;stroke-linejoin:round;" d="M285.135,344.868
		C277.408,337.141,266.928,332.8,256,332.8l0,0c-10.928,0-21.408,4.341-29.135,12.068l-46.201,46.201
		c-6.401,6.401-9.997,15.083-9.997,24.136V435.2h170.667v-19.995c0-9.053-3.596-17.735-9.997-24.136L285.135,344.868z"/>
	<g>
		<path style="fill:#147CC7;" d="M290.133,227.499v57.003c-0.003,9.055,3.588,17.741,9.984,24.149l65.365,65.365
			c6.396,6.409,9.987,15.095,9.984,24.149v79.701H136.533v-79.701c-0.003-9.055,3.588-17.74,9.984-24.149l65.365-65.365
			c6.396-6.409,9.987-15.095,9.984-24.149v-57.003c0.003-9.055-3.588-17.74-9.984-24.149l-65.365-65.365
			c-6.396-6.409-9.987-15.095-9.984-24.149V34.133h238.933v79.701c0.003,9.055-3.588,17.74-9.984,24.149l-65.365,65.365
			C293.721,209.758,290.13,218.444,290.133,227.499z"/>
		<path style="fill:#25A4F1;" d="M256,227.499v57.003c-0.003,9.055,3.588,17.741,9.984,24.149l65.365,65.365
			c6.396,6.409,9.987,15.095,9.984,24.149v79.701h-204.8v-79.701c-0.003-9.055,3.588-17.74,9.984-24.149l65.365-65.365
			c6.396-6.409,9.987-15.095,9.984-24.149v-57.003c0.003-9.055-3.588-17.74-9.984-24.149l-65.365-65.365
			c-6.396-6.409-9.987-15.095-9.984-24.149V34.133h204.8v79.701c0.003,9.055-3.588,17.74-9.984,24.149l-65.365,65.365
			C259.588,209.758,255.997,218.444,256,227.499z"/>
		<path style="fill:#7F34A5;" d="M128,469.333h256c4.713,0,8.533,3.821,8.533,8.533v17.067c0,4.713-3.82,8.533-8.533,8.533H128
			c-4.713,0-8.533-3.821-8.533-8.533v-17.067C119.467,473.154,123.287,469.333,128,469.333z"/>
		<path style="fill:#F9D842;" d="M341.333,415.232V435.2H170.667v-19.968c-0.003-9.055,3.588-17.741,9.984-24.149l46.251-46.251
			c7.761-7.649,18.202-11.966,29.099-12.032c10.91,0.001,21.374,4.328,29.099,12.032l46.251,46.251
			C337.746,397.492,341.337,406.177,341.333,415.232z"/>
		<path style="fill:#FFE749;" d="M307.2,415.232V435.2H170.667v-19.968c-0.003-9.055,3.588-17.741,9.984-24.149l46.251-46.251
			c3.467-3.476,7.546-6.282,12.032-8.277c4.486,1.995,8.565,4.801,12.032,8.277l46.251,46.251
			C303.612,397.492,307.203,406.177,307.2,415.232L307.2,415.232z"/>
		<path style="fill:#7F34A5;" d="M128,8.533h256c4.713,0,8.533,3.821,8.533,8.533v17.067c0,4.713-3.82,8.533-8.533,8.533H128
			c-4.713,0-8.533-3.821-8.533-8.533V17.067C119.467,12.354,123.287,8.533,128,8.533z"/>
		<g>
			<path style="fill:#AA44B9;" d="M358.4,477.867v17.067c0.274,4.411-3.058,8.22-7.467,8.533h-224
				c-4.409-0.314-7.741-4.122-7.467-8.533v-17.067c-0.274-4.411,3.058-8.22,7.467-8.533h224
				C355.342,469.647,358.674,473.455,358.4,477.867z"/>
			<path style="fill:#AA44B9;" d="M358.4,17.067v17.067c0.274,4.411-3.058,8.22-7.467,8.533h-224
				c-4.409-0.314-7.741-4.122-7.467-8.533V17.067c-0.274-4.411,3.058-8.22,7.467-8.533h224
				C355.342,8.847,358.674,12.655,358.4,17.067z"/>
		</g>
		<g>
			<path d="M306.163,209.371l65.342-65.342c8.027-7.983,12.527-18.846,12.496-30.167V51.2c9.422-0.009,17.057-7.645,17.067-17.067
				V17.067C401.057,7.645,393.422,0.009,384,0H128c-9.422,0.009-17.057,7.645-17.067,17.067v17.067
				c0.009,9.422,7.645,17.057,17.067,17.067v62.662c-0.031,11.321,4.469,22.184,12.496,30.167l65.342,65.342
				c4.782,4.812,7.475,11.316,7.496,18.1v57.058c-0.02,6.784-2.714,13.288-7.496,18.1l-65.342,65.342
				c-8.027,7.983-12.527,18.846-12.496,30.167V460.8c-9.422,0.009-17.057,7.645-17.067,17.067v17.067
				c0.009,9.422,7.645,17.057,17.067,17.067h256c9.422-0.009,17.057-7.645,17.067-17.067v-17.067
				c-0.009-9.422-7.645-17.057-17.067-17.067v-62.663c0.031-11.321-4.469-22.184-12.496-30.167l-65.342-65.342
				c-4.782-4.812-7.475-11.316-7.496-18.1v-57.058C298.687,220.686,301.38,214.183,306.163,209.371L306.163,209.371z M128,17.067
				l256-0.012v17.079H128V17.067z M384,494.933H128v-17.067l8.531-0.001l0.002,0.001h238.933l0.06-0.012l8.474-0.001V494.933z
				 M294.096,314.696l65.342,65.342c4.782,4.812,7.475,11.316,7.496,18.1V460.8H145.067v-62.663c0.02-6.784,2.714-13.288,7.496-18.1
				l65.342-65.342c8.027-7.983,12.527-18.846,12.496-30.167v-57.058c0.031-11.321-4.469-22.184-12.496-30.167l-65.342-65.342
				c-4.782-4.812-7.476-11.316-7.496-18.1V51.2h221.867v62.662c-0.02,6.785-2.714,13.288-7.496,18.1l-65.342,65.342
				c-8.027,7.983-12.527,18.846-12.496,30.167v57.058C281.569,295.85,286.069,306.713,294.096,314.696z"/>
			<path d="M220.833,338.833l-46.204,46.204c-8.027,7.983-12.527,18.846-12.496,30.167V435.2c0,4.713,3.82,8.533,8.533,8.533
				h170.667c4.713,0,8.533-3.821,8.533-8.533v-19.996c0.031-11.321-4.469-22.184-12.496-30.167l-46.204-46.204
				c-9.327-9.327-21.977-14.567-35.167-14.567C242.81,324.266,230.16,329.506,220.833,338.833z M325.304,397.104
				c4.782,4.812,7.476,11.316,7.496,18.1v11.462H179.2v-11.462c0.02-6.784,2.714-13.288,7.496-18.1L232.9,350.9
				c12.927-12.342,33.273-12.342,46.2,0L325.304,397.104z"/>
		</g>
	</g>
</g>
<g>
</g>
<g>
</g>
<g>
</g>
<g>
</g>
<g>
</g>
<g>
</g>
<g>
</g>
<g>
</g>
<g>
</g>
<g>
</g>
<g>
</g>
<g>
</g>
<g>
</g>
<g>
</g>
<g>
</g>
</svg>
