<?xml version="1.0" encoding="iso-8859-1"?>
<!-- Generator: Adobe Illustrator 19.0.0, SVG Export Plug-In . SVG Version: 6.00 Build 0)  -->
<svg version="1.1" id="Capa_1" xmlns="http://www.w3.org/2000/svg" xmlns:xlink="http://www.w3.org/1999/xlink" x="0px" y="0px"
	 viewBox="0 0 511.995 511.995" style="enable-background:new 0 0 511.995 511.995;" xml:space="preserve">
<g>
	<path style="fill:none;stroke:#000000;stroke-width:2;stroke-linecap:round;stroke-linejoin:round;" d="M196.605,405.587
		l-0.256,0.853c-10.325,37.12-30.635,55.552-45.483,54.699c-7.136-0.845-13.749-4.167-18.687-9.387
		c-9.331-9.368-12.714-23.129-8.789-35.755l3.328-12.885c2.05-8.079-0.312-16.64-6.215-22.524
		c-5.902-5.885-14.47-8.221-22.543-6.148l-12.8,3.328c-12.654,3.877-26.415,0.502-35.84-8.789
		c-5.233-4.953-8.531-11.609-9.302-18.773c-0.937-14.763,17.579-35.072,54.615-45.397l0.938-0.256
		c20.396-6.315,55.808-4.693,96.854,4.181C201.299,349.779,202.92,385.107,196.605,405.587z"/>
	<path style="fill:#B82B6A;" d="M149.88,478.177c-11.373-1.058-21.981-6.191-29.867-14.454c-13.537-13.618-18.58-33.53-13.158-51.95
		l3.333-12.925c0.524-1.906,0.102-3.948-1.133-5.492c-1.22-1.611-3.113-2.572-5.133-2.608c-0.588,0.004-1.173,0.081-1.742,0.229
		l-12.717,3.308c-4.965,1.29-10.071,1.956-15.2,1.983c-13.817,0.03-27.085-5.405-36.908-15.121
		c-8.273-7.924-13.384-18.584-14.383-29.996c-1.633-25.854,25.317-51.138,67.075-62.783l1.075-0.296
		c11.718-3.201,23.839-4.684,35.983-4.4c23.203,0.411,46.3,3.22,68.925,8.383l10.75,2.321l2.325,10.75
		c9.658,44.675,11.008,82.138,3.808,105.488l-0.233,0.767c-11.25,40.467-35.167,66.854-60.825,66.854
		C151.197,478.235,150.539,478.214,149.88,478.177z"/>
	<path style="fill:#EB3A76;" d="M151.339,452.618c-5.021-0.706-9.644-3.128-13.083-6.854c-7.239-7.236-9.791-17.929-6.6-27.654
		l3.325-12.871c2.503-9.588,0.389-19.795-5.717-27.6c-6.086-7.828-15.426-12.433-25.342-12.492
		c-2.709,0.005-5.408,0.345-8.033,1.012l-12.867,3.35c-2.861,0.742-5.802,1.131-8.758,1.158c-7.094,0.015-13.907-2.777-18.95-7.767
		c-3.725-3.466-6.124-8.122-6.783-13.167c-0.7-11.071,17.617-28.125,48.392-36.708l0.992-0.271
		c9.501-2.615,19.342-3.789,29.192-3.483c19.54,0.335,39.001,2.569,58.108,6.671c7.617,37.496,8.817,69.042,3.233,87.129
		l-0.258,0.854c-8.858,31.846-25.292,48.708-36.333,48.708L151.339,452.618z"/>
	<path style="fill:#B82B6A;" d="M196.605,405.587l-0.256,0.853c-10.325,37.12-30.635,55.552-45.483,54.699
		c-7.136-0.845-13.749-4.167-18.687-9.387c-9.331-9.368-12.714-23.129-8.789-35.755l3.328-12.885
		c2.05-8.079-0.312-16.64-6.215-22.524c-5.902-5.885-14.47-8.221-22.543-6.148l-12.8,3.328c-12.654,3.877-26.415,0.502-35.84-8.789
		c-5.233-4.953-8.531-11.609-9.302-18.773c-0.937-14.763,17.579-35.072,54.615-45.397l0.938-0.256
		c20.396-6.315,55.808-4.693,96.854,4.181C201.299,349.779,202.92,385.107,196.605,405.587z"/>
	<path style="fill:#EB3A76;" d="M151.814,434.947c-0.496-0.339-0.96-0.724-1.383-1.15c-2.922-3.055-3.798-7.532-2.242-11.462
		l3.317-12.825c3.767-14.714,0.53-30.343-8.77-42.35c-9.301-12.007-23.624-19.048-38.813-19.079
		c-4.143,0.004-8.27,0.526-12.283,1.554l-12.917,3.358c-1.459,0.383-2.959,0.588-4.467,0.608c-2.627,0.06-5.159-0.981-6.983-2.871
		c-0.421-0.423-0.797-0.888-1.125-1.387c2.717-3.971,12.575-13.525,35.358-19.879l1.633-0.458
		c7.817-2.049,15.891-2.947,23.967-2.667c14.589,0.194,29.137,1.606,43.492,4.221c5.85,33.925,4.85,56.779,1.542,67.479
		l-0.292,0.992C165.372,422.268,155.847,432.177,151.814,434.947z"/>
	<g>
		<path style="fill:#AA44B9;" d="M501.074,130.643L443.56,75.176l27.135-27.989c5.738-5.652,6.601-14.604,2.049-21.248
			c-2.8-3.782-7.115-6.148-11.809-6.476c-4.694-0.328-9.297,1.415-12.596,4.77L243.112,236.797l-11.52-11.093
			c-2.976-2.872-6.957-4.465-11.093-4.437c-6.525-0.02-12.405,3.933-14.847,9.984s-0.956,12.978,3.754,17.494l11.435,11.093
			l-18.261,18.944c-39.083-8.704-85.163-13.824-116.309-4.267c-48.555,13.483-79.616,44.544-77.653,77.653
			c2.157,19.415,12.806,36.876,29.08,47.681c16.274,10.805,36.499,13.844,55.229,8.298c-5.546,18.743-2.497,38.981,8.327,55.258
			c10.823,16.277,28.307,26.917,47.737,29.051c33.11,2.048,64.171-29.013,77.569-77.568c9.301-29.952,4.864-73.643-3.244-111.701
			l20.567-21.163l11.433,11.093c6.349,6.081,16.417,5.896,22.539-0.413c6.122-6.31,6.003-16.378-0.267-22.541l-11.521-11.179
			l99.841-103.339l57.429,55.467c1.534,1.481,3.596,2.288,5.728,2.24c2.132-0.048,4.156-0.947,5.621-2.496l11.093-11.435
			c3.001-3.229,2.888-8.259-0.256-11.349l-11.435-11.093l33.28-34.389l11.435,11.093c3.228,3.001,8.259,2.888,11.349-0.256
			l11.093-11.435C504.313,138.803,504.237,133.738,501.074,130.643z M196.605,405.587l-0.256,0.853
			c-10.325,37.12-30.635,55.552-45.483,54.699c-7.136-0.845-13.749-4.167-18.687-9.387c-9.331-9.368-12.714-23.129-8.789-35.755
			l3.328-12.885c2.05-8.079-0.312-16.64-6.215-22.524c-5.902-5.885-14.47-8.221-22.543-6.148l-12.8,3.328
			c-12.654,3.877-26.415,0.502-35.84-8.789c-5.233-4.953-8.531-11.609-9.302-18.773c-0.937-14.763,17.579-35.072,54.615-45.397
			l0.938-0.256c20.396-6.315,55.808-4.693,96.854,4.181C201.299,349.779,202.92,385.107,196.605,405.587z M411.047,154.792
			l-22.954-22.187l33.28-34.475l23.041,22.187L411.047,154.792z"/>
		<path style="fill:#25A4F1;" d="M277.928,292.691c-2.926,3.085-6.967,4.866-11.218,4.947c-4.251,0.08-8.356-1.548-11.397-4.52
			l-11.433-11.093l-23.041-22.187l-11.435-11.093c-4.71-4.515-6.197-11.443-3.754-17.494s8.323-10.004,14.847-9.984
			c4.135-0.027,8.117,1.565,11.093,4.437l11.52,11.093l22.954,22.187l11.521,11.179c3.037,2.94,4.779,6.967,4.843,11.193
			C282.494,285.582,280.874,289.66,277.928,292.691L277.928,292.691z"/>
		<g>
			<path d="M405.164,160.964c3.39,3.274,8.792,3.181,12.067-0.208l33.283-34.467c3.269-3.393,3.172-8.793-0.217-12.067
				l-22.975-22.192c-3.392-3.269-8.79-3.176-12.067,0.208l-33.292,34.467c-1.572,1.629-2.432,3.815-2.392,6.078
				c0.041,2.263,0.979,4.417,2.608,5.988L405.164,160.964z M421.605,110.235l10.7,10.333L410.88,142.76l-10.708-10.334
				L421.605,110.235z"/>
			<path d="M83.955,266.314c-52.4,14.512-86.092,49.212-83.85,86.367c1.812,20.966,12.768,40.07,29.95,52.221
				c15.119,10.973,33.796,15.892,52.358,13.792c-2.098,18.566,2.825,37.245,13.8,52.367c12.152,17.182,31.258,28.137,52.225,29.946
				c1.175,0.071,2.333,0.108,3.5,0.108c35.8-0.004,68.8-33.204,82.783-83.713c10.183-32.883,4.719-77.879-2.135-111.466
				l11.492-11.866l5.352,5.169c4.554,4.424,10.659,6.892,17.008,6.875h0.442c9.911-0.172,18.743-6.299,22.375-15.523
				c3.632-9.223,1.35-19.727-5.783-26.611l-5.348-5.164l87.998-91.136l51.308,49.546c3.073,3.165,7.361,4.852,11.767,4.629
				c4.383-0.06,8.56-1.871,11.6-5.029l11.1-11.492c6.326-6.569,6.14-17.019-0.417-23.358l-5.35-5.171l21.434-22.192l5.35,5.163
				c3.083,3.15,7.364,4.834,11.767,4.629c4.383-0.06,8.56-1.871,11.6-5.029l11.091-11.492c6.32-6.57,6.138-17.014-0.408-23.358
				l-51.308-49.55l21.142-21.896c8.603-8.65,9.776-22.22,2.783-32.217c-4.281-5.81-10.902-9.441-18.103-9.927
				c-7.201-0.486-14.25,2.223-19.272,7.406L242.867,224.767l-5.353-5.17c-4.601-4.627-10.929-7.119-17.45-6.871
				c-9.911,0.171-18.742,6.297-22.374,15.52s-1.35,19.726,5.783,26.609l5.334,5.152l-9.074,9.405
				C169.875,263.063,119.278,255.42,83.955,266.314z M454.489,30.197c1.539-1.578,3.696-2.394,5.894-2.23s4.21,1.292,5.498,3.08
				c2.056,3.279,1.482,7.558-1.367,10.179l-27.067,28.038c-3.269,3.392-3.172,8.791,0.217,12.062l57.425,54.704l-10.317,11.475
				L473.28,136.41c-3.392-3.269-8.79-3.176-12.067,0.208l-33.292,34.471c-1.572,1.629-2.432,3.815-2.392,6.078
				c0.041,2.263,0.979,4.417,2.608,5.988l11.475,10.321l-10.325,11.479l-57.45-55.479c-1.65-1.536-3.82-2.392-6.075-2.396
				c-2.263,0.043-4.416,0.979-5.992,2.604l-93.929,97.271l-10.695-10.329L454.489,30.197z M215.147,232.056
				c1.366-1.423,3.245-2.24,5.217-2.267h0.125c1.931-0.005,3.788,0.744,5.175,2.088l45.95,44.379
				c2.166,2.089,2.859,5.277,1.758,8.078s-3.782,4.661-6.791,4.714c-1.97,0.017-3.869-0.73-5.3-2.083l-45.958-44.387
				c-1.419-1.372-2.234-3.251-2.267-5.224C213.022,235.379,213.775,233.474,215.147,232.056z M231.797,282.21l-14.583,15.058
				c-0.157,0.22-0.303,0.448-0.438,0.683c-1.401,1.764-2.042,4.013-1.781,6.251c-0.01,0.263-0.007,0.525,0.01,0.787
				c9.65,45.188,10.867,83.317,3.342,107.608c-12.308,44.425-40.142,73.029-68.858,71.375c-15.86-1.576-30.259-9.947-39.475-22.95
				c-10.468-14.711-13.701-33.375-8.791-50.75c0.748-2.921-0.1-6.02-2.232-8.153c-2.132-2.133-5.23-2.982-8.152-2.235
				c-17.374,4.917-36.041,1.685-50.75-8.788c-13.002-9.21-21.373-23.603-22.95-39.458c-1.742-28.892,26.933-56.571,71.608-68.946
				c33.717-10.392,84.625-1.713,111.967,4.396c0.295,0.023,0.592,0.029,0.887,0.019c0.32,0.08,0.644,0.142,0.971,0.185
				c0.252,0,0.489-0.125,0.74-0.147c1.075-0.109,2.121-0.408,3.092-0.882c0.564-0.297,1.092-0.657,1.573-1.075
				c0.255-0.154,0.501-0.322,0.737-0.504l12.37-12.821L231.797,282.21z"/>
			<path d="M194.214,300.356c-43.292-9.354-79.233-10.767-101.125-4.004l-0.708,0.217c-43.375,12.054-61.975,36.521-60.9,54.163
				c0.91,9.244,5.102,17.857,11.817,24.275c11.495,11.507,28.4,15.735,43.958,10.992l12.85-3.3
				c5.148-1.322,10.612,0.172,14.372,3.93c3.759,3.758,5.256,9.221,3.937,14.37l-3.3,12.862
				c-4.724,15.556-0.499,32.449,10.992,43.95c6.416,6.718,15.03,10.911,24.275,11.817c0.483,0.029,0.975,0.046,1.467,0.046
				c17.5,0,40.967-18.742,52.658-60.804l0.225-0.771c6.792-21.967,5.375-57.904-3.975-101.2
				C200.047,303.622,197.489,301.064,194.214,300.356L194.214,300.356z M188.397,403.16l-0.3,1.004
				c-9.367,33.717-26.525,48.446-36.117,48.446c-0.192,0-0.375-0.004-0.55-0.017c-5.074-0.695-9.756-3.113-13.258-6.85
				c-7.181-7.264-9.7-17.933-6.525-27.642l3.3-12.862c2.451-9.59,0.347-19.775-5.704-27.609
				c-6.051-7.834-15.373-12.443-25.271-12.496c-2.735,0.002-5.459,0.348-8.108,1.029l-12.85,3.3
				c-9.711,3.185-20.388,0.666-27.65-6.525c-3.732-3.506-6.15-8.186-6.85-13.258c-0.575-9.475,14.067-27.117,48.592-36.713
				l0.942-0.283c18.092-5.592,49.658-4.383,87.158,3.221C192.822,353.431,194.005,384.993,188.397,403.16L188.397,403.16z"/>
		</g>
	</g>
</g>
<g>
</g>
<g>
</g>
<g>
</g>
<g>
</g>
<g>
</g>
<g>
</g>
<g>
</g>
<g>
</g>
<g>
</g>
<g>
</g>
<g>
</g>
<g>
</g>
<g>
</g>
<g>
</g>
<g>
</g>
</svg>
