<?xml version="1.0" encoding="iso-8859-1"?>
<!-- Generator: Adobe Illustrator 19.0.0, SVG Export Plug-In . SVG Version: 6.00 Build 0)  -->
<svg version="1.1" id="Layer_1" xmlns="http://www.w3.org/2000/svg" xmlns:xlink="http://www.w3.org/1999/xlink" x="0px" y="0px"
	 viewBox="0 0 512 512" style="enable-background:new 0 0 512 512;" xml:space="preserve">
<g transform="translate(1 1)">
	<path style="fill:#FDCC00;" d="M417.133,502.467H92.867c-46.933,0-85.333-38.4-85.333-85.333V92.867
		c0-46.933,38.4-85.333,85.333-85.333h324.267c46.933,0,85.333,38.4,85.333,85.333v324.267
		C502.467,464.067,464.067,502.467,417.133,502.467"/>
	<path style="fill:#FFA800;" d="M417.133,7.533h-17.067c46.933,0,85.333,38.4,85.333,85.333v324.267
		c0,46.933-38.4,85.333-85.333,85.333h17.067c46.933,0,85.333-38.4,85.333-85.333V92.867
		C502.467,45.933,464.067,7.533,417.133,7.533"/>
	<path style="fill:#FFFFFF;" d="M92.867,7.533h17.067C63,7.533,24.6,45.933,24.6,92.867v324.267c0,46.933,38.4,85.333,85.333,85.333
		H92.867c-46.933,0-85.333-38.4-85.333-85.333V92.867C7.533,45.933,45.933,7.533,92.867,7.533"/>
	<path style="fill:#FFE100;" d="M459.8,255c0,113.493-91.307,204.8-204.8,204.8S50.2,368.493,50.2,255S141.507,50.2,255,50.2
		S459.8,141.507,459.8,255"/>
	<path style="fill:#FFA800;" d="M255,50.2c-4.267,0-8.533,0-12.8,0.853c107.52,5.973,192,94.72,192,203.947
		s-84.48,197.973-192,203.947c4.267,0,8.533,0.853,12.8,0.853c113.493,0,204.8-91.307,204.8-204.8S368.493,50.2,255,50.2"/>
	<path style="fill:#00DA6C;" d="M220.867,408.6L220.867,408.6c-23.893,0-42.667-18.773-42.667-42.667
		c0-23.893,19.627-42.667,43.52-42.667h41.813v42.667C263.533,389.827,244.76,408.6,220.867,408.6"/>
	<path style="fill:#00AD55;" d="M246.467,323.267v42.667c0,19.627-12.8,34.987-29.867,40.96c4.267,0.853,8.533,1.707,12.8,1.707
		c23.893,0,42.667-18.773,42.667-42.667v-42.667H246.467z"/>
	<path d="M263.533,331.8c-5.12,0-8.533-3.413-8.533-8.533V127c0-5.12,3.413-8.533,8.533-8.533c5.12,0,8.533,3.413,8.533,8.533
		v196.267C272.067,328.387,268.653,331.8,263.533,331.8z"/>
	<path d="M220.867,417.133c-29.013,0-51.2-22.187-51.2-51.2c0-28.16,23.04-51.2,52.053-51.2h41.813c5.12,0,8.533,3.413,8.533,8.533
		v42.667C272.067,394.947,249.88,417.133,220.867,417.133z M221.72,331.8c-19.627,0-34.987,15.36-34.987,34.133
		s15.36,34.133,34.133,34.133S255,384.707,255,365.933V331.8H221.72z"/>
	<path d="M320.707,289.133c-0.853,0-1.707,0-2.56,0c-4.267-1.707-6.827-5.973-5.973-11.093L319,256.707
		c8.533-24.747,2.56-51.2-14.507-70.827l-47.787-53.76c-3.413-3.413-2.56-8.533,0.853-11.947c3.413-3.413,8.533-2.56,11.947,0.853
		l48.64,53.76c20.48,23.893,27.307,57.173,17.92,87.04l-6.827,21.333C327.533,286.573,324.973,289.133,320.707,289.133z"/>
	<path d="M417.133,511H92.867C40.813,511-1,469.187-1,417.133V92.867C-1,40.813,40.813-1,92.867-1h324.267
		C469.187-1,511,40.813,511,92.867v324.267C511,469.187,469.187,511,417.133,511z M92.867,16.067c-42.667,0-76.8,34.133-76.8,76.8
		v324.267c0,42.667,34.133,76.8,76.8,76.8h324.267c42.667,0,76.8-34.133,76.8-76.8V92.867c0-42.667-34.133-76.8-76.8-76.8H92.867z"
		/>
	<path d="M67.267,58.733c0,5.12-3.413,8.533-8.533,8.533S50.2,63.853,50.2,58.733s3.413-8.533,8.533-8.533
		S67.267,53.613,67.267,58.733"/>
	<path d="M459.8,451.267c0,5.12-3.413,8.533-8.533,8.533s-8.533-3.413-8.533-8.533s3.413-8.533,8.533-8.533
		S459.8,446.147,459.8,451.267"/>
	<path d="M451.267,67.267c-5.12,0-8.533-3.413-8.533-8.533s3.413-8.533,8.533-8.533s8.533,3.413,8.533,8.533
		S456.387,67.267,451.267,67.267"/>
	<path d="M58.733,459.8c-5.12,0-8.533-3.413-8.533-8.533s3.413-8.533,8.533-8.533s8.533,3.413,8.533,8.533
		S63.853,459.8,58.733,459.8"/>
	<path d="M255,468.333C137.24,468.333,41.667,372.76,41.667,255S137.24,41.667,255,41.667S468.333,137.24,468.333,255
		S372.76,468.333,255,468.333z M255,58.733C146.627,58.733,58.733,146.627,58.733,255S146.627,451.267,255,451.267
		S451.267,363.373,451.267,255S363.373,58.733,255,58.733z"/>
</g>
<g>
</g>
<g>
</g>
<g>
</g>
<g>
</g>
<g>
</g>
<g>
</g>
<g>
</g>
<g>
</g>
<g>
</g>
<g>
</g>
<g>
</g>
<g>
</g>
<g>
</g>
<g>
</g>
<g>
</g>
</svg>
