<svg height="512" viewBox="0 0 60 60" width="512" xmlns="http://www.w3.org/2000/svg"><g id="043---Playing-Streamed-Music" fill="none"><g id="Icons" transform="translate(1)"><rect id="Rectangle-path" fill="#283593" height="6" rx="1" width="58" y="49"/><rect id="Rectangle-path" fill="#3f51b5" height="6" rx="1" width="55" y="49"/><path id="Shape" d="m32 48v8c0 1.6568542-1.3431458 3-3 3s-3-1.3431458-3-3v-8c0-1.6568542 1.3431458-3 3-3s3 1.3431458 3 3z" fill="#0377bc"/><path id="Shape" d="m29 48v8c.0006876 1.072484-.5712013 2.0637581-1.5 2.6-.9287987-.5362419-1.5006876-1.527516-1.5-2.6v-8c-.0006876-1.072484.5712013-2.0637581 1.5-2.6.2250081.1347918.4331436.295929.62.48.5634227.5616324.8800702 1.3244649.88 2.12z" fill="#02a9f4"/><path id="Shape" d="m46.69 1.02c-2.026.314 2.629-.415-28 4.38-.9745454.15290024-1.692057.99353512-1.69 1.98v22.68c-.0039251.2819323-.1266897.5491063-.3380581.7357199-.2113685.1866136-.4916963.275323-.7719419.2442801-5.353-.37-8.89 3.179-8.89 6.96 0 4.014 3.763 7 8 7 4.42 0 8-3.13 8-7v-22.94l20-3.12v14.12c-.0039251.2819323-.1266897.5491063-.3380581.7357199-.2113685.1866136-.4916963.275323-.7719419.2442801-5.353-.37-8.89 3.179-8.89 6.96 0 4.014 3.763 7 8 7 4.42 0 8-3.13 8-7v-31c.0012209-.58530591-.2540146-1.14177208-.6984129-1.52268495-.4443983-.38091286-1.0333539-.54803894-1.6115871-.45731505z" fill="#f44335"/><g fill="#c81e1e"><path id="Shape" d="m40 11.94-20 3.12v22.94c0 3.419-2.8 6.257-6.495 6.872.4938515.0845975.9939553.1274158 1.495.128 4.42 0 8-3.13 8-7v-22.94l17-2.652z"/><path id="Shape" d="m46.69 1.02-1.677.26c.6100889.35837815.985414 1.01244022.987 1.72v31c0 3.419-2.8 6.257-6.495 6.872.4938515.0845975.9939553.1274158 1.495.128 4.42 0 8-3.13 8-7v-31c.0012209-.58530591-.2540146-1.14177208-.6984129-1.52268495-.4443983-.38091286-1.0333539-.54803894-1.6115871-.45731505z"/></g></g><g id="Layer_10" fill="#000" transform="translate(0 -1)"><path id="Shape" d="m58 49h-24c0-2.209139-1.790861-4-4-4s-4 1.790861-4 4h-24c-1.1045695 0-2 .8954305-2 2v4c0 1.1045695.8954305 2 2 2h24c0 2.209139 1.790861 4 4 4s4-1.790861 4-4h24c1.1045695 0 2-.8954305 2-2v-4c0-1.1045695-.8954305-2-2-2zm-56 6v-4h24v4zm30 2c0 1.1045695-.8954305 2-2 2s-2-.8954305-2-2v-8c0-1.1045695.8954305-2 2-2s2 .8954305 2 2zm26-2h-24v-4h24z"/><path id="Shape" d="m33 35c0 4.411 4.038 8 9 8s9-3.589 9-8v-31c-.0005106-.87708956-.3840693-1.7102094-1.0501004-2.280901s-1.5480952-.82202602-2.4148996-.688099l-28 4.381c-1.4662783.22175997-2.5482558 1.48506021-2.542 2.968v22.669c-5.256-.522-9.993 3.135-9.993 7.951 0 4.411 4.038 8 9 8s9-3.589 9-8v-22.081l17.993-2.813v12.943c-5.266-.523-9.993 3.144-9.993 7.951zm16 0c0 3.309-3.14 6-7 6s-7-2.691-7-6c0-3.712 3.83-6.366 7.786-5.961.5632972.0606239 1.125877-.1205023 1.5479938-.4983864.4221167-.3778841.6641601-.9170665.6660062-1.4836136v-13.257l4-.627zm-29.155-27.611c30.111-4.67 28.042-4.389 28.155-4.389.5522847 0 1 .44771525 1 1v7.144l-30 4.687v-7.451c.0009959-.49268374.3586655-.91215186.845-.991zm3.155 31.611c0 3.309-3.14 6-7 6s-7-2.691-7-6c0-3.712 3.83-6.366 7.786-5.961.5632972.0606239 1.125877-.1205023 1.5479938-.4983864.4221167-.3778841.6641601-.9170665.6660062-1.4836136v-13.2l4-.625z"/><path id="Shape" d="m15 35c-1.0702387-.0315929-2.1061138.3796808-2.8632165 1.1367835s-1.1683764 1.7929778-1.1367835 2.8632165c0 .5522847.4477153 1 1 1s1-.4477153 1-1c-.0342778-.5412774.1662515-1.0710921.5503331-1.4540249s.9144946-.5818741 1.4556669-.5459751c.5522847-.0016569.9986568-.4507153.9969999-1.003-.0016568-.5522847-.4507152-.9986568-1.0029999-.997z"/></g></g></svg>