<svg height="512" viewBox="0 0 60 60" width="512" xmlns="http://www.w3.org/2000/svg"><g id="043---Playing-Streamed-Music" transform="translate(0 -1)"><path id="Shape" d="m58 49h-24c0-2.209139-1.790861-4-4-4s-4 1.790861-4 4h-24c-1.1045695 0-2 .8954305-2 2v4c0 1.1045695.8954305 2 2 2h24c0 2.209139 1.790861 4 4 4s4-1.790861 4-4h24c1.1045695 0 2-.8954305 2-2v-4c0-1.1045695-.8954305-2-2-2zm-56 6v-4h24v4zm30 2c0 1.1045695-.8954305 2-2 2s-2-.8954305-2-2v-8c0-1.1045695.8954305-2 2-2s2 .8954305 2 2zm26-2h-24v-4h24z"/><path id="Shape" d="m33 35c0 4.411 4.038 8 9 8s9-3.589 9-8v-31c-.0005106-.87708956-.3840693-1.7102094-1.0501004-2.280901s-1.5480952-.82202602-2.4148996-.688099l-28 4.381c-1.4662783.22175997-2.5482558 1.48506021-2.542 2.968v22.669c-5.256-.522-9.993 3.135-9.993 7.951 0 4.411 4.038 8 9 8s9-3.589 9-8v-22.081l17.993-2.813v12.943c-5.266-.523-9.993 3.144-9.993 7.951zm16 0c0 3.309-3.14 6-7 6s-7-2.691-7-6c0-3.712 3.83-6.366 7.786-5.961.5632972.0606239 1.125877-.1205023 1.5479938-.4983864.4221167-.3778841.6641601-.9170665.6660062-1.4836136v-13.257l4-.627zm-29.155-27.611c30.111-4.67 28.042-4.389 28.155-4.389.5522847 0 1 .44771525 1 1v7.144l-30 4.687v-7.451c.0009959-.49268374.3586655-.91215186.845-.991zm3.155 31.611c0 3.309-3.14 6-7 6s-7-2.691-7-6c0-3.712 3.83-6.366 7.786-5.961.5632972.0606239 1.125877-.1205023 1.5479938-.4983864.4221167-.3778841.6641601-.9170665.6660062-1.4836136v-13.2l4-.625z"/><path id="Shape" d="m15 35c-1.0702387-.0315929-2.1061138.3796808-2.8632165 1.1367835s-1.1683764 1.7929778-1.1367835 2.8632165c0 .5522847.4477153 1 1 1s1-.4477153 1-1c-.0342778-.5412774.1662515-1.0710921.5503331-1.4540249s.9144946-.5818741 1.4556669-.5459751c.5522847-.0016569.9986568-.4507153.9969999-1.003-.0016568-.5522847-.4507152-.9986568-1.0029999-.997z"/></g></svg>