<?xml version="1.0" encoding="iso-8859-1"?>
<!-- Generator: Adobe Illustrator 19.0.0, SVG Export Plug-In . SVG Version: 6.00 Build 0)  -->
<svg version="1.1" id="Capa_1" xmlns="http://www.w3.org/2000/svg" xmlns:xlink="http://www.w3.org/1999/xlink" x="0px" y="0px"
	 viewBox="0 0 512.015 512.015" style="enable-background:new 0 0 512.015 512.015;" xml:space="preserve">
<g transform="translate(-1)">
	<path style="fill:#9C63AD;" d="M262.945,502.538c236.38-77.19,243.888-310.291,241.186-375.511
		c-0.608-9.526-8.617-16.879-18.161-16.673c-119.25,0.203-187.519-62.769-214.862-95.367c-3.541-4.095-8.687-6.448-14.101-6.448
		c-5.414,0-10.56,2.353-14.101,6.448c-27.343,32.597-95.612,95.57-214.862,95.367c-9.543-0.206-17.553,7.147-18.161,16.673
		c-2.702,65.22,4.806,298.321,241.186,375.511C254.931,503.784,259.085,503.784,262.945,502.538z"/>
	<g>
		<path style="fill:none;stroke:#000000;stroke-width:2;stroke-linecap:round;stroke-linejoin:round;" d="M257.008,468.535
			C64.383,402.835,43.616,219.96,43.666,144.164c80.705-1.865,157.397-35.574,213.342-93.771
			c55.917,58.241,132.624,91.965,213.342,93.796C470.399,219.976,449.599,402.847,257.008,468.535z"/>
		<path style="fill:none;stroke:#000000;stroke-width:2;stroke-linecap:round;stroke-linejoin:round;" d="M257.008,128.006
			l-77.534,70.486c-2.609,2.371-3.49,6.103-2.219,9.391c1.271,3.288,4.434,5.456,7.959,5.456h37.661
			c4.713,0,8.533,3.821,8.533,8.533v162.133c0,4.713,3.821,8.533,8.533,8.533h34.133c4.713,0,8.533-3.821,8.533-8.533V221.872
			c0-4.713,3.82-8.533,8.533-8.533h37.661c3.525,0,6.688-2.168,7.959-5.456s0.39-7.02-2.219-9.391L257.008,128.006z"/>
	</g>
	<g>
		<path style="fill:#583EAB;" d="M262.945,502.538c236.38-77.19,243.888-310.291,241.186-375.511
			c-0.608-9.526-8.617-16.879-18.161-16.673c-119.25,0.203-187.519-62.769-214.862-95.367c-3.541-4.095-8.687-6.448-14.101-6.448
			c-5.414,0-10.56,2.353-14.101,6.448c-27.343,32.597-95.612,95.57-214.862,95.367c-9.543-0.206-17.553,7.147-18.161,16.673
			c-2.702,65.22,4.806,298.321,241.186,375.511C254.931,503.784,259.085,503.784,262.945,502.538z"/>
		<path style="fill:#B82B6A;" d="M470.341,144.219c0.085,75.776-20.736,258.645-213.333,324.352
			c-7.339-2.475-14.507-5.205-21.333-8.107c-172.8-71.424-192.085-243.371-192-316.331c70.524-1.786,138.3-27.721,192-73.472
			c8.021-6.997,15.189-13.824,21.333-20.309C312.928,108.592,389.623,142.337,470.341,144.219z"/>
		<path style="fill:#EB3A76;" d="M427.674,144.219c0.085,72.875-19.2,244.821-192,316.245
			c-172.8-71.424-192.085-243.371-192-316.331c70.524-1.786,138.3-27.721,192-73.472
			C289.349,116.467,357.134,142.436,427.674,144.219z"/>
		<path style="fill:#FFE749;" d="M257.008,128.006l-77.534,70.486c-2.609,2.371-3.49,6.103-2.219,9.391
			c1.271,3.288,4.434,5.456,7.959,5.456h37.661c4.713,0,8.533,3.821,8.533,8.533v162.133c0,4.713,3.821,8.533,8.533,8.533h34.133
			c4.713,0,8.533-3.821,8.533-8.533V221.872c0-4.713,3.82-8.533,8.533-8.533h37.661c3.525,0,6.688-2.168,7.959-5.456
			s0.39-7.02-2.219-9.391L257.008,128.006z"/>
		<g>
			<path d="M248.424,510.647c5.578,1.815,11.588,1.817,17.167,0.004c240.742-78.617,249.975-313.775,247.067-383.983
				c-0.755-14.101-12.53-25.079-26.65-24.846c-0.202-0.017-0.406-0.017-0.608,0c-113.367,0-178.817-57.817-207.75-92.317
				c-5.163-6.029-12.704-9.5-20.642-9.5c-7.938,0-15.479,3.471-20.642,9.5C207.425,44.01,142,101.822,28.616,101.822
				c-0.202-0.019-0.406-0.019-0.608,0c-14.122-0.234-25.897,10.747-26.651,24.85C-1.551,196.876,7.683,432.035,248.424,510.647z
				 M18.408,127.385c0.402-4.949,4.639-8.698,9.6-8.496h0.608c120.292,0,189.975-61.633,220.833-98.417
				c1.969-2.071,4.701-3.244,7.558-3.244c2.857,0,5.59,1.173,7.558,3.244c30.859,36.783,100.525,98.425,220.833,98.417
				c0.202,0.025,0.406,0.025,0.608,0c4.96-0.203,9.196,3.544,9.6,8.492c2.783,67.171-5.975,292.154-235.317,367.046v0.004
				c-2.137,0.678-4.431,0.676-6.567-0.004C24.383,419.535,15.624,194.551,18.408,127.385z"/>
			<path d="M254.249,476.61c1.788,0.611,3.729,0.611,5.517,0c197.917-67.504,219.167-254.963,219.117-332.425
				c-0.001-4.579-3.617-8.34-8.192-8.521c-78.525-1.648-153.175-34.442-207.508-91.158c-1.61-1.69-3.841-2.646-6.175-2.646
				c-2.334,0-4.565,0.956-6.175,2.646c-54.374,56.666-129.01,89.442-207.525,91.133c-4.568,0.19-8.174,3.949-8.175,8.521
				C35.083,221.626,56.333,409.106,254.249,476.61z M257.008,62.58c54.827,54.156,127.753,86.111,204.733,89.708
				c-1.475,77.613-26.308,244.738-204.733,307.217C78.566,397.022,53.749,229.868,52.274,152.256
				C129.238,148.615,202.146,116.68,257.008,62.58z"/>
			<path d="M185.216,221.872h37.658v162.133c0.011,9.421,7.645,17.056,17.067,17.067h34.133c9.421-0.011,17.056-7.645,17.067-17.067
				V221.872h37.658c7.051,0.003,13.378-4.332,15.922-10.909c2.544-6.577,0.78-14.041-4.439-18.783l-77.533-70.488
				c-3.256-2.958-8.227-2.958-11.483,0l-77.533,70.483c-5.219,4.743-6.983,12.208-4.44,18.785S178.164,221.874,185.216,221.872z
				 M257.008,139.539l71.792,65.267h-37.658c-9.421,0.011-17.056,7.645-17.067,17.067v162.133h-34.133V221.872
				c-0.011-9.421-7.645-17.056-17.067-17.067h-37.658L257.008,139.539z"/>
		</g>
	</g>
</g>
<g>
</g>
<g>
</g>
<g>
</g>
<g>
</g>
<g>
</g>
<g>
</g>
<g>
</g>
<g>
</g>
<g>
</g>
<g>
</g>
<g>
</g>
<g>
</g>
<g>
</g>
<g>
</g>
<g>
</g>
</svg>
