<?xml version="1.0" encoding="iso-8859-1"?>
<!-- Generator: Adobe Illustrator 19.0.0, SVG Export Plug-In . SVG Version: 6.00 Build 0)  -->
<svg version="1.1" id="Capa_1" xmlns="http://www.w3.org/2000/svg" xmlns:xlink="http://www.w3.org/1999/xlink" x="0px" y="0px"
	 viewBox="0 0 512.201 512.201" style="enable-background:new 0 0 512.201 512.201;" xml:space="preserve">
<g transform="translate(-1)">
	<g>
		<g>
			<path style="fill:#4F6F7F;" d="M105.519,307.599l100.074,100.074c9.997,9.997,9.997,26.207,0,36.204l-0.965,0.965
				c-9.997,9.997-26.207,9.997-36.204,0L68.35,344.769c-9.997-9.997-9.997-26.207,0-36.204l0.965-0.965
				C79.313,297.602,95.522,297.602,105.519,307.599z"/>
			<path style="fill:#4F6F7F;" d="M46.742,409.883l56.551,56.551c8.331,8.331,8.331,21.839,0,30.17l-0.803,0.803
				c-8.331,8.331-21.839,8.331-30.17,0l-56.551-56.551c-8.331-8.331-8.331-21.839,0-30.17l0.803-0.803
				C24.903,401.552,38.411,401.552,46.742,409.883z"/>
		</g>
		
			<rect x="61.59" y="385.848" transform="matrix(-0.7071 -0.7071 0.7071 -0.7071 -129.5538 779.3531)" style="fill:#EC9130;" width="70.085" height="61.321"/>
		<path style="fill:#A5B4B4;" d="M198.906,401.022l261.518-152.94c4.464-2.61,7.546-7.059,8.422-12.155l35.581-206.912
			c0.964-5.608-0.855-11.335-4.878-15.358c-4.024-4.024-9.751-5.843-15.358-4.878L277.278,44.359
			c-5.096,0.876-9.545,3.959-12.155,8.422l-152.94,261.518L198.906,401.022z"/>
	</g>
	<path style="fill:none;stroke:#000000;stroke-width:2;stroke-linecap:round;stroke-linejoin:round;" d="M155.545,357.661
		L499.586,13.62"/>
	<g>
		<path style="fill:#728B98;" d="M46.742,409.883l56.551,56.551c8.331,8.331,8.331,21.839,0,30.17l-0.803,0.803
			c-8.331,8.331-21.839,8.331-30.17,0l-56.551-56.551c-8.331-8.331-8.331-21.839,0-30.17l0.803-0.803
			C24.903,401.552,38.411,401.552,46.742,409.883z"/>
		
			<rect x="61.59" y="385.848" transform="matrix(-0.7071 -0.7071 0.7071 -0.7071 -129.5538 779.3531)" style="fill:#D3DADE;" width="70.085" height="61.321"/>
		<path style="fill:#008F9B;" d="M504.432,28.998l-35.584,206.933c-0.836,5.11-3.942,9.566-8.448,12.117L198.938,401.051
			l-28.757-28.757l-58.027-58.027L265.157,52.806c2.551-4.506,7.007-7.613,12.117-8.448l191.659-32.939l15.275-2.645
			c5.606-0.974,11.336,0.84,15.36,4.864C503.591,17.661,505.406,23.391,504.432,28.998z"/>
		<path style="fill:#00C2D7;" d="M468.933,11.419l-34.219,198.912c-0.922,5.096-4.002,9.546-8.448,12.203l-256.085,149.76
			l-58.027-58.027L265.157,52.806c2.551-4.506,7.007-7.613,12.117-8.448L468.933,11.419z"/>
		<path style="fill:#717275;" d="M155.546,366.192c-3.451-0.001-6.562-2.08-7.882-5.268c-1.32-3.188-0.591-6.858,1.849-9.298
			L493.554,7.584c3.332-3.332,8.735-3.332,12.067,0c3.332,3.332,3.332,8.735,0,12.067L161.579,363.693
			C159.981,365.296,157.81,366.195,155.546,366.192z"/>
		<path style="fill:#728B98;" d="M105.519,307.599l100.074,100.074c9.997,9.997,9.997,26.207,0,36.204l-0.965,0.965
			c-9.997,9.997-26.207,9.997-36.204,0L68.35,344.769c-9.997-9.997-9.997-26.207,0-36.204l0.965-0.965
			C79.313,297.602,95.522,297.602,105.519,307.599z"/>
		<path d="M10.554,403.864l-0.825,0.817c-11.638,11.675-11.637,30.565,0.004,42.238l56.554,56.554
			c11.68,11.645,30.583,11.638,42.254-0.017l0.783-0.783c10.726-10.638,11.713-27.649,2.29-39.457l31.542-31.545l19.227,19.227
			c6.4,6.403,15.082,10,24.135,10s17.735-3.597,24.135-10l0.962-0.962c12.837-12.901,13.277-33.611,1-47.046l252.104-147.437
			c6.649-3.873,11.239-10.494,12.533-18.079l35.583-206.913c1.362-8.087-1.166-16.344-6.823-22.282
			c-0.157-0.186-0.219-0.418-0.394-0.593c-0.17-0.17-0.395-0.229-0.575-0.382c-5.934-5.683-14.21-8.217-22.308-6.831L275.833,35.951
			c-7.581,1.292-14.2,5.878-18.075,12.521L110.317,300.589c-13.436-12.276-34.144-11.836-47.046,1l-0.962,0.962
			c-6.403,6.4-10,15.082-10,24.135c0,9.053,3.597,17.735,10,24.135l19.227,19.227l-31.57,31.567
			C38.037,392.657,21.386,393.606,10.554,403.864z M460.438,234.48c-0.446,2.616-2.031,4.899-4.325,6.233L200.283,390.33
			l-32.671-32.671L495.671,29.6L460.438,234.48z M272.492,57.084c1.337-2.29,3.619-3.87,6.233-4.317L483.6,17.539L155.546,345.593
			l-32.671-32.671L272.492,57.084z M69.375,326.689c-0.012-4.53,1.788-8.876,5-12.071l0.963-0.962c6.672-6.65,17.466-6.65,24.137,0
			l6.665,6.665l0.01,0.015l86.721,86.721l0.013,0.009l6.667,6.667c6.652,6.671,6.652,17.466,0,24.137l-0.962,0.963
			c-6.753,6.45-17.384,6.45-24.138,0L74.375,338.755C71.163,335.563,69.363,331.217,69.375,326.689z M97.242,490.618l-0.783,0.783
			c-5.001,4.993-13.101,4.995-18.104,0.004L21.8,434.851c-4.984-4.997-4.991-13.082-0.017-18.088l0.825-0.817
			c2.4-2.401,5.655-3.75,9.05-3.75s6.65,1.349,9.05,3.75l3.496,3.496l49.558,49.558l3.496,3.496c2.404,2.404,3.753,5.665,3.75,9.064
			C101.005,484.96,99.65,488.219,97.242,490.618L97.242,490.618z M93.6,382.118l37.488,37.488l-31.292,31.296l-37.492-37.492
			L93.6,382.118z"/>
	</g>
</g>
<g>
</g>
<g>
</g>
<g>
</g>
<g>
</g>
<g>
</g>
<g>
</g>
<g>
</g>
<g>
</g>
<g>
</g>
<g>
</g>
<g>
</g>
<g>
</g>
<g>
</g>
<g>
</g>
<g>
</g>
</svg>
